<svg xmlns="http://www.w3.org/2000/svg" width="77" height="78" viewBox="0 0 77 78" fill="none">
<path fill-rule="evenodd" clip-rule="evenodd" d="M53.8847 34.3846H42.1524L49.1463 18.0677C49.2466 17.8336 49.2873 17.5782 49.2646 17.3245C49.2419 17.0708 49.1566 16.8267 49.0163 16.6141C48.876 16.4015 48.6851 16.2271 48.4607 16.1065C48.2364 15.9859 47.9856 15.9229 47.7309 15.9231H32.3463C32.045 15.9228 31.7502 16.011 31.4986 16.1768C31.247 16.3425 31.0496 16.5785 30.9309 16.8554L21.7001 38.3939C21.5998 38.628 21.5591 38.8833 21.5818 39.137C21.6045 39.3908 21.6898 39.6349 21.8301 39.8474C21.9704 40.06 22.1613 40.2345 22.3857 40.3551C22.61 40.4757 22.8608 40.5387 23.1155 40.5385H30.7278L21.6878 63.0431C21.0724 64.5723 22.9709 65.8677 24.1709 64.7354L39.6294 50.1416L54.8847 37.0923C55.1238 36.8879 55.2944 36.6152 55.3737 36.3108C55.4529 36.0065 55.437 35.6851 55.328 35.3901C55.2191 35.0951 55.0223 34.8405 54.7643 34.6608C54.5062 34.481 54.1992 34.3846 53.8847 34.3846ZM39.8201 37.4616H49.7186L37.5709 47.8554L27.1555 57.6862L34.4324 39.5723C34.526 39.3389 34.5609 39.0861 34.5341 38.8361C34.5073 38.586 34.4196 38.3464 34.2787 38.1381C34.1378 37.9298 33.948 37.7592 33.7259 37.6413C33.5038 37.5233 33.2562 37.4616 33.0047 37.4616H25.4478L33.3617 19H45.3986L38.4047 35.3169C38.3044 35.5511 38.2637 35.8064 38.2864 36.0601C38.3091 36.3138 38.3944 36.5579 38.5347 36.7705C38.675 36.9831 38.8659 37.1575 39.0903 37.2782C39.3146 37.3988 39.5654 37.4618 39.8201 37.4616Z" fill="#000000"/>
<path fill-rule="evenodd" clip-rule="evenodd" d="M38.5001 74.3846C58.0417 74.3846 73.8847 58.5415 73.8847 39C73.8847 19.4585 58.0417 3.61538 38.5001 3.61538C18.9586 3.61538 3.1155 19.4585 3.1155 39C3.1155 58.5415 18.9586 74.3846 38.5001 74.3846ZM38.5001 77.4615C59.7432 77.4615 76.9617 60.2431 76.9617 39C76.9617 17.7569 59.7432 0.538452 38.5001 0.538452C17.257 0.538452 0.0385742 17.7569 0.0385742 39C0.0385742 60.2431 17.257 77.4615 38.5001 77.4615Z" fill="#000000"/>
</svg>