<svg width="81" height="80" viewBox="0 0 81 80" fill="none" xmlns="http://www.w3.org/2000/svg">
<g filter="url(#filter0_d_39_225)">
<path d="M30.1875 55H50.8125C51.1563 55 51.4375 54.7188 51.4375 54.375V47.8125C51.4375 47.4688 51.1563 47.1875 50.8125 47.1875H47.6875C47.3438 47.1875 47.0625 47.4688 47.0625 47.8125V50.625H33.9375V47.8125C33.9375 47.4688 33.6563 47.1875 33.3125 47.1875H30.1875C29.8438 47.1875 29.5625 47.4688 29.5625 47.8125V54.375C29.5625 54.7188 29.8438 55 30.1875 55ZM56.75 45.3906C56.75 46.2194 57.0793 47.0143 57.6653 47.6003C58.2514 48.1864 59.0462 48.5156 59.875 48.5156C60.7038 48.5156 61.4987 48.1864 62.0847 47.6003C62.6708 47.0143 63 46.2194 63 45.3906C63 44.5618 62.6708 43.767 62.0847 43.1809C61.4987 42.5949 60.7038 42.2656 59.875 42.2656C59.0462 42.2656 58.2514 42.5949 57.6653 43.1809C57.0793 43.767 56.75 44.5618 56.75 45.3906ZM75.4219 32.2969L73.5703 29.0625C73.4871 28.9199 73.3508 28.8161 73.1913 28.7736C73.0317 28.7312 72.8619 28.7536 72.7188 28.8359L68.7578 31.1484L62.6406 14.2578C62.3177 13.25 61.6828 12.3708 60.8276 11.7473C59.9724 11.1238 58.9412 10.7883 57.8828 10.7891H24.0313C21.3203 10.7891 18.9141 12.5391 18.0781 15.125L12.25 31.1562L8.28126 28.8438C8.13818 28.7614 7.96831 28.739 7.80876 28.7814C7.64921 28.8239 7.51294 28.9277 7.4297 29.0703L5.57814 32.2969C5.40626 32.5938 5.50783 32.9688 5.8047 33.1406L10.5235 35.8906L9.39064 39.0156C9.29689 39.2656 9.25001 39.5313 9.25001 39.7969V67C9.25001 68.2266 10.1719 69.2188 11.3047 69.2188H16.5859C17.5469 69.2188 18.3828 68.4922 18.586 67.4766L19.1875 64.5312H61.8125L62.4141 67.4766C62.625 68.4922 63.4531 69.2188 64.4141 69.2188H69.6953C70.8281 69.2188 71.75 68.2266 71.75 67V39.7969C71.75 39.5313 71.7031 39.2656 71.6094 39.0156L70.4766 35.8906L75.1875 33.1406C75.3293 33.0587 75.4333 32.9245 75.4772 32.7667C75.521 32.6089 75.5012 32.4402 75.4219 32.2969ZM66.125 40.3906V58.9062H14.875V40.3906L16.0938 37.0313H64.9063L66.125 40.3906ZM23.3672 17.0391L23.4063 16.9375L23.4375 16.8359C23.5235 16.5781 23.7578 16.4063 24.0313 16.4063H57.4375L63.3281 32.6563H17.6875L23.3672 17.0391ZM18 45.3906C18 46.2194 18.3293 47.0143 18.9153 47.6003C19.5014 48.1864 20.2962 48.5156 21.125 48.5156C21.9538 48.5156 22.7487 48.1864 23.3347 47.6003C23.9208 47.0143 24.25 46.2194 24.25 45.3906C24.25 44.5618 23.9208 43.767 23.3347 43.1809C22.7487 42.5949 21.9538 42.2656 21.125 42.2656C20.2962 42.2656 19.5014 42.5949 18.9153 43.1809C18.3293 43.767 18 44.5618 18 45.3906Z" fill="black"/>
</g>
<defs>
<filter id="filter0_d_39_225" x="-3.5" y="0" width="88" height="88" filterUnits="userSpaceOnUse" color-interpolation-filters="sRGB">
<feFlood flood-opacity="0" result="BackgroundImageFix"/>
<feColorMatrix in="SourceAlpha" type="matrix" values="0 0 0 0 0 0 0 0 0 0 0 0 0 0 0 0 0 0 127 0" result="hardAlpha"/>
<feOffset dy="4"/>
<feGaussianBlur stdDeviation="2"/>
<feComposite in2="hardAlpha" operator="out"/>
<feColorMatrix type="matrix" values="0 0 0 0 0 0 0 0 0 0 0 0 0 0 0 0 0 0 0.25 0"/>
<feBlend mode="normal" in2="BackgroundImageFix" result="effect1_dropShadow_39_225"/>
<feBlend mode="normal" in="SourceGraphic" in2="effect1_dropShadow_39_225" result="shape"/>
</filter>
</defs>
</svg>
