<svg width="81" height="80" viewBox="0 0 81 80" fill="none" xmlns="http://www.w3.org/2000/svg">
<path d="M74.892 17.6H6.13359C3.92239 17.6 2.11279 19.6112 2.11279 21.6C2.11279 23.5888 3.92239 25.5984 6.13359 25.5984H7.10479V33.5984H74.0184V25.5984H74.892C77.1048 25.5984 78.9128 23.5888 78.9128 21.6C78.9128 19.6112 77.1048 17.6 74.892 17.6ZM40.5128 29.632C39.4024 29.632 38.5032 28.7056 38.5032 27.5648C38.5032 26.424 39.4024 25.4976 40.5128 25.4976C41.6248 25.4976 42.5224 26.424 42.5224 27.5648C42.5224 28.7056 41.6248 29.632 40.5128 29.632ZM7.10479 49.5968H74.0184V36.8H7.10479V49.5968ZM40.5128 40.9984C41.6248 40.9984 42.5224 41.9232 42.5224 43.064C42.5224 44.2064 41.6248 45.1312 40.5128 45.1312C39.4024 45.1312 38.5032 44.2064 38.5032 43.064C38.5016 41.9232 39.4024 40.9984 40.5128 40.9984ZM7.10479 60.632V69.9344C7.10479 71.0704 7.24719 72.0016 8.35279 72.0016H16.3912C17.4968 72.0016 17.9976 71.0704 17.9976 69.9344V63.9984H63.1256V69.9344C63.1256 71.0704 63.5288 72.0016 64.6328 72.0016H72.6728C73.7752 72.0016 74.0168 71.0704 74.0168 69.9344V52.8H7.10479V60.632ZM40.5128 56.4992C41.6248 56.4992 42.5224 57.4256 42.5224 58.5648C42.5224 59.7088 41.6248 60.6304 40.5128 60.6304C39.4024 60.6304 38.5032 59.7088 38.5032 58.5648C38.5016 57.4272 39.4024 56.4992 40.5128 56.4992Z" fill="black"/>
</svg>
