<svg width="81" height="80" viewBox="0 0 81 80" fill="none" xmlns="http://www.w3.org/2000/svg">
<path fill-rule="evenodd" clip-rule="evenodd" d="M70.5 10V20H38.8333V13.3333C38.8333 12.4493 39.1845 11.6014 39.8096 10.9763C40.4348 10.3512 41.2826 10 42.1667 10H70.5ZM42.1667 13.3333H67.1667V16.6667H42.1667V13.3333ZM22.1667 66.25V66.66C22.1667 67.5441 21.8155 68.3919 21.1904 69.017C20.5652 69.6421 19.7174 69.9933 18.8333 69.9933H13.8333C12.9493 69.9933 12.1014 69.6421 11.4763 69.017C10.8512 68.3919 10.5 67.5441 10.5 66.66V48.335C10.5 47.4509 10.8512 46.6031 11.4763 45.978C12.1014 45.3529 12.9493 45.0017 13.8333 45.0017H18.8333C19.584 45.0013 20.3129 45.2544 20.9018 45.72C21.4907 46.1855 21.9053 46.8362 22.0783 47.5667C24.285 46.7717 26.8633 45.825 27.6517 45.465C28.3217 45.16 29.095 45.0567 29.7383 45.0183C30.4023 44.9859 31.0676 44.9976 31.73 45.0533C32.4716 45.1137 33.2101 45.2071 33.9433 45.3333L33.9817 45.34L33.9933 45.3417H33.9983L34.0283 45.3483L45.1783 47.8483L45.2467 47.8717L45.265 47.8783L45.3417 47.9017L45.6567 47.9917C45.9317 48.0683 46.3267 48.17 46.7983 48.2733C47.7567 48.4817 48.965 48.6767 50.09 48.6767C51.13 48.6767 52.2067 49.065 52.78 50.1183C53.2733 51.0217 53.1583 52.015 52.975 52.7017C52.7433 53.5583 52.2667 54.4583 51.6617 55.2233C52.4783 54.915 53.3733 54.55 54.3333 54.1567L54.5383 54.0733C57.2433 52.9617 60.45 51.645 63.28 51.1783C66.5133 50.6433 68.865 51.8167 69.9317 53.8983C70.8817 55.7517 70.6617 58.1833 69.2317 59.6483C68.8733 60.0167 68.3267 60.4033 67.7783 60.7583C67.1917 61.14 66.47 61.5683 65.6683 62.025C63.8265 63.0561 61.9622 64.0463 60.0767 64.995C56.1233 67 51.98 68.95 50.6633 69.4317C49.1367 69.99 47.4967 70.0433 45.9217 69.9617C44.9705 69.9026 44.0208 69.822 43.0733 69.72C42.3796 69.6482 41.6852 69.5843 40.99 69.5283C37.7767 69.285 35.31 68.5 33.04 67.7783L32.7633 67.69C30.4167 66.9467 28.2333 66.285 25.3417 66.1683C24.6817 66.1417 23.3617 66.1933 22.1667 66.25ZM29.0333 48.4967C29.1417 48.4467 29.425 48.375 29.93 48.345C30.4033 48.3167 30.9433 48.335 31.4717 48.375C32.0678 48.4232 32.6616 48.496 33.2517 48.5933L33.3117 48.605L33.3583 48.6133H33.3633L44.3083 51.0683L44.3833 51.0917C44.4756 51.1206 44.6033 51.1572 44.7667 51.2017C45.09 51.2917 45.5467 51.41 46.0883 51.5283C47.0633 51.7417 48.3717 51.965 49.7017 52.0033C49.5832 52.324 49.4241 52.6281 49.2283 52.9083C48.9617 53.295 48.67 53.5933 48.43 53.765C47.7367 54.2617 47.1767 54.4683 46.8367 54.5567C46.7209 54.5886 46.6028 54.6109 46.4833 54.6233H46.4467L37.51 54.5167L37.1933 57.8233L37.2817 57.84L37.5367 57.885L38.4633 58.0483C39.2417 58.185 40.31 58.3683 41.4733 58.5583C43.7633 58.9317 46.5233 59.345 48.09 59.44C49.1733 59.5067 50.4333 59.1733 51.605 58.7817C52.8267 58.3733 54.2083 57.8083 55.5983 57.2383C58.46 56.065 61.375 54.87 63.8233 54.465C65.94 54.115 66.695 54.8883 66.965 55.4167C67.3533 56.175 67.1433 57.0167 66.845 57.32C66.7733 57.395 66.5117 57.6067 65.965 57.9617C65.455 58.29 64.7967 58.685 64.0233 59.1233C62.2271 60.1289 60.4089 61.0947 58.57 62.02C54.5833 64.0417 50.6167 65.8967 49.5167 66.3C48.6267 66.6267 47.525 66.705 46.0933 66.6317C45.2499 66.5821 44.408 66.5104 43.5683 66.4167C42.7938 66.3351 42.0181 66.264 41.2417 66.2033C38.4217 65.99 36.2783 65.3083 33.98 64.5783L33.7717 64.5117C31.3917 63.7567 28.845 62.9717 25.4767 62.8367C24.7183 62.8067 23.3683 62.8533 22.1667 62.91V51.075C24.51 50.2367 27.9783 48.9783 29.0333 48.4967ZM18.8333 48.3333H13.8333V66.6583H18.8333V48.3333Z" fill="black"/>
<path d="M40.5 23.3333C40.058 23.3333 39.634 23.5089 39.3215 23.8215C39.0089 24.134 38.8333 24.558 38.8333 25C38.8333 25.442 39.0089 25.8659 39.3215 26.1785C39.634 26.4911 40.058 26.6666 40.5 26.6666H50.5C50.942 26.6666 51.3659 26.4911 51.6785 26.1785C51.9911 25.8659 52.1667 25.442 52.1667 25C52.1667 24.558 51.9911 24.134 51.6785 23.8215C51.3659 23.5089 50.942 23.3333 50.5 23.3333H40.5ZM45.5 30.2866C45.942 30.2866 46.3659 30.4622 46.6785 30.7748C46.9911 31.0874 47.1667 31.5113 47.1667 31.9533V35.2866C47.1667 35.7287 46.9911 36.1526 46.6785 36.4652C46.3659 36.7777 45.942 36.9533 45.5 36.9533C45.058 36.9533 44.634 36.7777 44.3215 36.4652C44.0089 36.1526 43.8333 35.7287 43.8333 35.2866V31.9533C43.8333 31.5113 44.0089 31.0874 44.3215 30.7748C44.634 30.4622 45.058 30.2866 45.5 30.2866ZM52.3683 30.4883C52.054 30.1847 51.633 30.0167 51.196 30.0205C50.759 30.0243 50.341 30.1996 50.032 30.5086C49.7229 30.8176 49.5477 31.2357 49.5439 31.6726C49.5401 32.1096 49.7081 32.5306 50.0117 32.845L52.3683 35.2016C52.5231 35.3565 52.7068 35.4794 52.909 35.5632C53.1112 35.647 53.328 35.6902 53.5469 35.6903C53.7658 35.6904 53.9826 35.6474 54.1849 35.5636C54.3872 35.4799 54.571 35.3572 54.7258 35.2025C54.8807 35.0477 55.0035 34.864 55.0874 34.6618C55.1712 34.4596 55.2144 34.2428 55.2145 34.0239C55.2146 33.805 55.1715 33.5882 55.0878 33.3859C55.0041 33.1836 54.8814 32.9998 54.7267 32.845L52.3683 30.4883ZM35.9883 35.4883C35.6759 35.1758 35.5003 34.7519 35.5003 34.31C35.5003 33.868 35.6759 33.4442 35.9883 33.1316L38.345 30.7733C38.6577 30.4608 39.0818 30.2853 39.5239 30.2855C39.966 30.2856 40.39 30.4614 40.7025 30.7741C41.015 31.0869 41.1905 31.511 41.1903 31.9531C41.1902 32.3952 41.0144 32.8191 40.7017 33.1316L38.345 35.4883C38.0324 35.8008 37.6086 35.9763 37.1667 35.9763C36.7247 35.9763 36.3009 35.8008 35.9883 35.4883ZM47.1667 40.2866C47.1667 39.8446 46.9911 39.4207 46.6785 39.1081C46.3659 38.7956 45.942 38.62 45.5 38.62C45.058 38.62 44.634 38.7956 44.3215 39.1081C44.0089 39.4207 43.8333 39.8446 43.8333 40.2866V41.9533C43.8333 42.3953 44.0089 42.8193 44.3215 43.1318C44.634 43.4444 45.058 43.62 45.5 43.62C45.942 43.62 46.3659 43.4444 46.6785 43.1318C46.9911 42.8193 47.1667 42.3953 47.1667 41.9533V40.2866ZM55.845 36.3216C56.1575 36.0092 56.5814 35.8337 57.0233 35.8337C57.4653 35.8337 57.8891 36.0092 58.2017 36.3216L60.5583 38.6783C60.8619 38.9927 61.0299 39.4137 61.0261 39.8506C61.0223 40.2876 60.847 40.7057 60.538 41.0147C60.229 41.3237 59.811 41.499 59.374 41.5028C58.937 41.5066 58.516 41.3386 58.2017 41.035L55.845 38.6783C55.5325 38.3658 55.357 37.9419 55.357 37.5C55.357 37.058 55.5325 36.6342 55.845 36.3216ZM30.155 38.5483C29.8514 38.8626 29.6834 39.2837 29.6872 39.7206C29.691 40.1576 29.8663 40.5757 30.1753 40.8847C30.4843 41.1937 30.9023 41.369 31.3393 41.3728C31.7763 41.3766 32.1973 41.2086 32.5117 40.905L34.8683 38.5483C35.0232 38.3936 35.146 38.2098 35.2299 38.0076C35.3137 37.8054 35.3569 37.5887 35.357 37.3697C35.3571 37.1508 35.314 36.934 35.2303 36.7318C35.1466 36.5295 35.0239 36.3457 34.8692 36.1908C34.7144 36.036 34.5307 35.9131 34.3285 35.8293C34.1262 35.7454 33.9095 35.7022 33.6906 35.7021C33.4717 35.7021 33.2549 35.7451 33.0526 35.8288C32.8503 35.9125 32.6665 36.0352 32.5117 36.19L30.155 38.5483Z" fill="black"/>
</svg>
