<svg width="121" height="74" viewBox="0 0 121 74" fill="none" xmlns="http://www.w3.org/2000/svg">
<g id="devicon-plain:cloudflareworkers">
<g id="Group 1000001264">
<path id="Vector" d="M43.7014 65.5576C43.0488 65.0044 42.4971 64.3419 42.0712 63.5999L30.9859 44.3428C30.3399 43.2185 30 41.9445 30 40.6478C30 39.3511 30.3399 38.0771 30.9859 36.9528L42.0712 17.6953C42.4977 16.9572 43.0488 16.2986 43.7 15.7485L51.1367 29.1747L45.7664 38.8428C45.4602 39.3926 45.2995 40.0114 45.2995 40.6407C45.2995 41.2699 45.4602 41.8888 45.7664 42.4385L51.142 52.1385L43.7014 65.5576ZM77.0321 17.6953L88.1174 36.9523C88.7666 38.0755 89.1084 39.35 89.1084 40.6473C89.1084 41.9447 88.7666 43.2191 88.1174 44.3423L77.0321 63.5994C76.384 64.7223 75.4519 65.6549 74.3294 66.3035C73.2068 66.9521 71.9334 67.2939 70.6369 67.2947H61.9351L75.7208 42.438C76.0244 41.89 76.1837 41.2738 76.1837 40.6473C76.1837 40.0208 76.0244 39.4046 75.7208 38.8567L61.9351 14.0005H70.6369C71.9333 14.0011 73.2068 14.3429 74.3293 14.9914C75.4518 15.64 76.384 16.5725 77.0321 17.6953ZM46.2641 14.4962C47.1099 14.1695 48.0087 14.0013 48.9154 14H59.0473L72.833 38.8567C73.1367 39.4046 73.296 40.0208 73.296 40.6473C73.296 41.2738 73.1367 41.89 72.833 42.438L59.0473 67.2947H48.9159C47.933 67.2947 46.95 67.093 46.0591 66.726L59.2714 42.2159C59.6975 41.4484 59.749 39.9573 59.3224 39.1899L46.2641 14.4962Z" fill="#0083B3"/>
</g>
</g>
</svg>
