<svg width="81" height="80" viewBox="0 0 81 80" fill="none" xmlns="http://www.w3.org/2000/svg">
<g id="icons8:electrical">
<path id="Vector" d="M55.5 8.98499L45.5 18.9075L39.8 13.2025L36.2 16.8025L38.075 18.6775L25.265 31.4875C23.8094 32.9509 22.9924 34.931 22.9924 36.995C22.9924 39.059 23.8094 41.0391 25.265 42.5025L29.875 47.1125L11.2 65.705L14.8 69.305L33.3899 50.63L38 55.235C39.4634 56.6905 41.4434 57.5075 43.5074 57.5075C45.5714 57.5075 47.5515 56.6905 49.0149 55.235L61.8274 42.4225L63.7024 44.2975L67.3025 40.6975L61.5924 35L71.5125 25L68 21.485L58 31.41L49.0924 22.5L59.0174 12.5L55.5 8.98499ZM41.5924 22.185L58.3125 38.905L45.5 51.7225C44.5299 52.69 42.4849 52.69 41.5149 51.7225L28.7824 38.9875C27.8125 38.0175 27.8125 35.9725 28.7824 35.0025L41.5924 22.19V22.185Z" fill="black"/>
</g>
</svg>
