<svg xmlns="http://www.w3.org/2000/svg" width="9" height="15" viewBox="0 0 9 15" fill="none" transform="matrix(1, 0, 0, 1, 0, 0)">
<path fill-rule="evenodd" clip-rule="evenodd" d="M8.59099 5.62373H5.47209L7.33132 0.65329C7.358 0.581976 7.36881 0.504186 7.36278 0.426903C7.35675 0.34962 7.33407 0.275262 7.29677 0.210503C7.25947 0.145744 7.20872 0.0926098 7.14908 0.0558692C7.08944 0.0191286 7.02277 -6.88498e-05 6.95506 1.85534e-07H2.86524C2.78515 -8.14428e-05 2.7068 0.026788 2.63991 0.0772746C2.57302 0.127761 2.52054 0.199643 2.48898 0.283999L0.0350923 6.84502C0.00841325 6.91633 -0.00239556 6.99412 0.00363554 7.07141C0.00966664 7.14869 0.0323489 7.22305 0.0696471 7.28781C0.106945 7.35257 0.157692 7.4057 0.217333 7.44244C0.276974 7.47918 0.343642 7.49838 0.411355 7.49831H2.435L0.0318203 14.3536C-0.131772 14.8195 0.372911 15.2141 0.691917 14.8691L4.80136 10.4236L8.85682 6.44855C8.92037 6.38628 8.96573 6.3032 8.9868 6.21048C9.00787 6.11777 9.00364 6.01989 8.97467 5.93002C8.94571 5.84015 8.8934 5.76261 8.8248 5.70784C8.7562 5.65308 8.67459 5.62372 8.59099 5.62373ZM4.85208 6.56102H7.48346L4.25415 9.72718L1.48534 12.7218L3.41982 7.204C3.44469 7.1329 3.45397 7.05589 3.44685 6.97972C3.43972 6.90356 3.41641 6.83055 3.37896 6.7671C3.34151 6.70365 3.29105 6.65169 3.23201 6.61576C3.17297 6.57983 3.10714 6.56104 3.04029 6.56102H1.03137L3.13517 0.937289H6.33504L4.47581 5.90773C4.44913 5.97905 4.43833 6.05684 4.44436 6.13412C4.45039 6.2114 4.47307 6.28576 4.51037 6.35052C4.54767 6.41528 4.59841 6.46841 4.65805 6.50515C4.7177 6.54189 4.78436 6.56109 4.85208 6.56102Z" fill="#000000"/>
</svg>