<svg width="81px" height="80px" viewBox="0 0 81 80" fill="none" xmlns="http://www.w3.org/2000/svg" transform="rotate(0) scale(1, 1)">
<g id="pepicons-pencil:electricity-circle">
<g id="Group">
<path id="Vector" fill-rule="evenodd" clip-rule="evenodd" d="M55.8847 35.3846H44.1524L51.1463 19.0677C51.2466 18.8336 51.2873 18.5782 51.2646 18.3245C51.2419 18.0708 51.1566 17.8267 51.0163 17.6141C50.876 17.4015 50.6851 17.2271 50.4607 17.1065C50.2364 16.9859 49.9856 16.9229 49.7309 16.9231H34.3463C34.045 16.9228 33.7502 17.011 33.4986 17.1768C33.247 17.3425 33.0496 17.5785 32.9309 17.8554L23.7001 39.3939C23.5998 39.628 23.5591 39.8833 23.5818 40.137C23.6045 40.3908 23.6898 40.6349 23.8301 40.8474C23.9704 41.06 24.1613 41.2345 24.3857 41.3551C24.61 41.4757 24.8608 41.5387 25.1155 41.5385H32.7278L23.6878 64.0431C23.0724 65.5723 24.9709 66.8677 26.1709 65.7354L41.6294 51.1416L56.8847 38.0923C57.1238 37.8879 57.2944 37.6152 57.3737 37.3108C57.4529 37.0065 57.437 36.6851 57.328 36.3901C57.2191 36.0951 57.0223 35.8405 56.7643 35.6608C56.5062 35.481 56.1992 35.3846 55.8847 35.3846ZM41.8201 38.4616H51.7186L39.5709 48.8554L29.1555 58.6862L36.4324 40.5723C36.526 40.3389 36.5609 40.0861 36.5341 39.8361C36.5073 39.586 36.4196 39.3464 36.2787 39.1381C36.1378 38.9298 35.948 38.7592 35.7259 38.6413C35.5038 38.5233 35.2562 38.4616 35.0047 38.4616H27.4478L35.3617 20H47.3986L40.4047 36.3169C40.3044 36.5511 40.2637 36.8064 40.2864 37.0601C40.3091 37.3138 40.3944 37.5579 40.5347 37.7705C40.675 37.9831 40.8659 38.1575 41.0903 38.2782C41.3146 38.3988 41.5654 38.4618 41.8201 38.4616Z" fill="#000000f4"/>
<path id="Vector_2" fill-rule="evenodd" clip-rule="evenodd" d="M40.5001 75.3846C60.0417 75.3846 75.8847 59.5415 75.8847 40C75.8847 20.4585 60.0417 4.61538 40.5001 4.61538C20.9586 4.61538 5.1155 20.4585 5.1155 40C5.1155 59.5415 20.9586 75.3846 40.5001 75.3846ZM40.5001 78.4615C61.7432 78.4615 78.9617 61.2431 78.9617 40C78.9617 18.7569 61.7432 1.53845 40.5001 1.53845C19.257 1.53845 2.03857 18.7569 2.03857 40C2.03857 61.2431 19.257 78.4615 40.5001 78.4615Z" fill="#000000f4"/>
</g>
</g>
</svg>