<svg width="28" height="28" viewBox="0 0 28 28" fill="none" xmlns="http://www.w3.org/2000/svg">
<path d="M4.6665 21C4.6665 19.7624 5.15817 18.5754 6.03334 17.7002C6.90851 16.825 8.09549 16.3334 9.33317 16.3334H18.6665C19.9042 16.3334 21.0912 16.825 21.9663 17.7002C22.8415 18.5754 23.3332 19.7624 23.3332 21C23.3332 21.6189 23.0873 22.2124 22.6498 22.65C22.2122 23.0875 21.6187 23.3334 20.9998 23.3334H6.99984C6.381 23.3334 5.78751 23.0875 5.34992 22.65C4.91234 22.2124 4.6665 21.6189 4.6665 21Z" stroke="#6D6D6D" stroke-width="2" stroke-linejoin="round"/>
<path d="M14 11.6667C15.933 11.6667 17.5 10.0997 17.5 8.16669C17.5 6.23369 15.933 4.66669 14 4.66669C12.067 4.66669 10.5 6.23369 10.5 8.16669C10.5 10.0997 12.067 11.6667 14 11.6667Z" stroke="#6D6D6D" stroke-width="2"/>
</svg>
