<svg width="28" height="23" viewBox="0 0 28 23" fill="none" xmlns="http://www.w3.org/2000/svg">
<g clip-path="url(#clip0_128_957)">
<path d="M1.52349 23C1.18083 22.8405 0.80128 22.7146 0.503436 22.5132C0.147604 22.274 0 21.9235 0 21.5458C0 14.8458 0 8.14789 0 1.44786C0 0.658882 0.830274 0.00209835 1.8187 0C6.15457 0 10.4878 0 14.8237 0.00839339C14.9897 0.00839339 15.1953 0.0797373 15.3139 0.174163C17.2512 1.71225 19.178 3.25874 21.11 4.80102C21.2682 4.92692 21.3314 5.06122 21.3314 5.23958C21.3235 6.31813 21.3288 7.39458 21.3288 8.52559C21.4369 8.44795 21.508 8.39759 21.5739 8.34513C22.2355 7.82264 22.8734 7.28337 23.5587 6.77977C25.0216 5.70541 27.3569 6.23629 27.8893 7.7576C28.145 8.48572 27.9605 9.16139 27.3147 9.72165C26.7559 10.2085 26.1549 10.6617 25.5724 11.1275C24.2308 12.1977 22.8892 13.2679 21.5397 14.3338C21.3894 14.4534 21.3235 14.5709 21.3235 14.743C21.3314 16.8833 21.2998 19.0257 21.342 21.166C21.3604 22.1124 20.9334 22.7335 19.8053 23H1.52349ZM14.6761 0.730225C14.6023 0.72393 14.5759 0.717635 14.5469 0.717635C10.3349 0.717635 6.1203 0.715537 1.90831 0.717635C1.30472 0.717635 0.906712 1.04498 0.90144 1.5276C0.896169 1.98504 0.90144 2.44038 0.90144 2.89782C0.90144 9.05857 0.90144 15.2214 0.90144 21.3822C0.90144 21.9487 1.27836 22.2782 1.94521 22.2782C7.75713 22.2782 13.569 22.2782 19.381 22.2782C20.0215 22.2782 20.4247 21.9571 20.4247 21.4514C20.4247 19.437 20.4247 17.4226 20.4247 15.4103C20.4247 15.3641 20.4089 15.32 20.3905 15.213C20.2824 15.3179 20.2218 15.3851 20.148 15.4438C18.8459 16.4825 17.5438 17.5212 16.2338 18.5536C16.1126 18.648 15.9492 18.7404 15.7884 18.7655C14.5548 18.9586 13.3186 19.139 12.0825 19.3174C11.6344 19.3824 11.3945 19.1789 11.4815 18.8327C11.7135 17.9178 11.9559 17.005 12.1721 16.088C12.2274 15.853 12.3513 15.6789 12.5595 15.5131C15.111 13.4882 17.6545 11.4591 20.206 9.43627C20.3668 9.30828 20.4274 9.18447 20.4274 9.00611C20.4168 7.85412 20.4221 6.70003 20.4221 5.54803V5.29623C20.2824 5.29623 20.1796 5.29623 20.0768 5.29623C18.4874 5.29623 16.8981 5.29623 15.3087 5.29623C14.8237 5.29623 14.6734 5.17453 14.6734 4.78214C14.6734 3.51683 14.6734 2.25153 14.6734 0.986224C14.6734 0.906487 14.6734 0.824651 14.6734 0.732324L14.6761 0.730225ZM22.0378 9.04808C19.1675 11.3311 16.305 13.6099 13.4583 15.8782C14.2517 16.5119 15.0609 17.154 15.8332 17.7709C18.6878 15.4984 21.5555 13.2154 24.4153 10.9387C23.6378 10.3218 22.8365 9.68178 22.0405 9.05018L22.0378 9.04808ZM19.4679 4.55761C18.1606 3.52732 16.877 2.51802 15.6144 1.5234V4.55761H19.4679ZM23.9541 7.48481C24.7791 8.14369 25.583 8.78159 26.4001 9.43418C26.9299 9.05647 27.1987 8.59064 27.0248 8.0094C26.8587 7.45963 26.4106 7.10081 25.72 6.98121C25.011 6.8574 24.4127 7.04416 23.9541 7.48481ZM22.7231 8.46474C23.5455 9.12152 24.3521 9.76362 25.1217 10.3784C25.3009 10.2504 25.5013 10.1077 25.6647 9.99024C24.8581 9.34185 24.0542 8.69766 23.2503 8.05136C23.0763 8.18776 22.8892 8.33464 22.7205 8.46474H22.7231ZM12.9707 16.6336C12.8178 17.24 12.6597 17.8611 12.4936 18.5242C13.3345 18.3983 14.1199 18.2829 14.8975 18.1654C14.2464 17.6492 13.6112 17.1456 12.9681 16.6336H12.9707Z" fill="#6D6D6D"/>
<path d="M10.6696 10.9492C8.33952 10.9492 6.00949 10.9492 3.67945 10.9492C3.22609 10.9492 3.00468 10.8338 2.99678 10.5904C2.98887 10.3407 3.22082 10.2106 3.68472 10.2106C8.33689 10.2106 12.9864 10.2106 17.6386 10.2106C18.1104 10.2106 18.3371 10.3323 18.3371 10.582C18.3371 10.8317 18.113 10.9492 17.636 10.9492C15.3138 10.9492 12.9943 10.9492 10.6722 10.9492H10.6696Z" fill="#6D6D6D"/>
<path d="M10.6672 7.09244C12.9893 7.09244 15.3088 7.09244 17.6309 7.09244C17.7258 7.09244 17.8181 7.09034 17.913 7.09663C18.166 7.11342 18.3031 7.23093 18.332 7.42608C18.3584 7.60863 18.1871 7.7786 17.9499 7.80797C17.8681 7.81847 17.7812 7.81427 17.6968 7.81427C13.0077 7.81427 8.31868 7.81427 3.62961 7.81427C3.511 7.81427 3.38184 7.81007 3.27114 7.7765C3.06291 7.71355 2.96539 7.57296 3.00229 7.4009C3.03655 7.23093 3.16834 7.11762 3.39502 7.09873C3.48727 7.09034 3.58216 7.09454 3.67705 7.09454C6.00709 7.09454 8.33713 7.09454 10.6672 7.09454V7.09244Z" fill="#6D6D6D"/>
<path d="M8.22877 4.6772C6.67893 4.6772 5.12645 4.6793 3.5766 4.673C3.43427 4.673 3.24713 4.65412 3.16278 4.58277C3.06262 4.49884 2.98355 4.32887 3.02309 4.23025C3.06789 4.11904 3.24976 4.0372 3.38946 3.96376C3.45008 3.93228 3.55551 3.95537 3.63986 3.95537C6.69474 3.95537 9.74698 3.95537 12.8019 3.95537C12.8572 3.95537 12.9152 3.95537 12.9706 3.95537C13.2526 3.96586 13.4529 4.11064 13.4582 4.30789C13.4661 4.51562 13.2658 4.673 12.9626 4.673C11.9004 4.6772 10.8382 4.673 9.77598 4.673C9.25936 4.673 8.74275 4.673 8.22613 4.673L8.22877 4.6772Z" fill="#6D6D6D"/>
<path d="M8.11275 14.0736C6.63934 14.0736 5.1633 14.0736 3.68989 14.0736C3.595 14.0736 3.50275 14.0736 3.40786 14.0673C3.16801 14.0505 3.02831 13.9351 3.00195 13.7526C2.97296 13.5553 3.10738 13.4231 3.33933 13.3665C3.42631 13.3455 3.52384 13.3476 3.61873 13.3476C6.61562 13.3476 9.61251 13.3476 12.6068 13.3476C12.8704 13.3476 13.1023 13.3854 13.1946 13.6099C13.2947 13.8533 13.0838 14.0673 12.7359 14.0736C12.2483 14.082 11.758 14.0778 11.2704 14.0778C10.2187 14.0778 9.16707 14.0778 8.11539 14.0778L8.11275 14.0736Z" fill="#6D6D6D"/>
<path d="M6.956 17.2044C5.79889 17.2044 4.64441 17.2044 3.4873 17.2044C3.27907 17.2044 3.0972 17.1498 3.04449 16.9882C3.01022 16.8791 3.02077 16.7259 3.0972 16.6378C3.16573 16.556 3.34497 16.493 3.47676 16.493C5.8068 16.4846 8.13947 16.4867 10.4695 16.4888C10.7621 16.4888 10.9413 16.6315 10.944 16.8413C10.9466 17.0617 10.7621 17.2023 10.4537 17.2044C9.28867 17.2064 8.12366 17.2044 6.956 17.2044Z" fill="#6D6D6D"/>
</g>
<defs>
<clipPath id="clip0_128_957">
<rect width="28" height="23" fill="white"/>
</clipPath>
</defs>
</svg>
