<svg width="31" height="31" viewBox="0 0 31 31" fill="none" xmlns="http://www.w3.org/2000/svg">
<path d="M7.75016 24.5413H12.519V17.9835C12.519 17.6881 12.6193 17.4405 12.82 17.2408C13.0197 17.0401 13.2673 16.9398 13.5627 16.9398H17.4377C17.733 16.9398 17.981 17.0401 18.1817 17.2408C18.3814 17.4405 18.4813 17.6881 18.4813 17.9835V24.5413H23.2502V13.3141C23.2502 13.1815 23.2213 13.0609 23.1636 12.9524C23.1059 12.8439 23.0271 12.7492 22.9272 12.6683L15.9729 7.42667C15.8403 7.31129 15.6827 7.25359 15.5002 7.25359C15.3176 7.25359 15.1605 7.31129 15.0287 7.42667L8.07308 12.6683C7.97405 12.7509 7.89526 12.8456 7.8367 12.9524C7.77815 13.0592 7.7493 13.1798 7.75016 13.3141V24.5413ZM6.4585 24.5413V13.3141C6.4585 12.9834 6.53255 12.6704 6.68066 12.375C6.82877 12.0797 7.03286 11.8364 7.29291 11.6453L14.2485 6.37784C14.6128 6.0997 15.0287 5.96063 15.4963 5.96063C15.9639 5.96063 16.3824 6.0997 16.7518 6.37784L23.7074 11.644C23.9683 11.8351 24.1724 12.0788 24.3197 12.375C24.4678 12.6704 24.5418 12.9834 24.5418 13.3141V24.5413C24.5418 24.8874 24.4131 25.1892 24.1556 25.4467C23.8981 25.7042 23.5963 25.8329 23.2502 25.8329H18.2333C17.9371 25.8329 17.6891 25.733 17.4893 25.5333C17.2896 25.3326 17.1897 25.0846 17.1897 24.7893V18.2328H13.8107V24.7893C13.8107 25.0855 13.7108 25.3335 13.511 25.5333C13.3112 25.733 13.0636 25.8329 12.7683 25.8329H7.75016C7.404 25.8329 7.10218 25.7042 6.8447 25.4467C6.58723 25.1892 6.4585 24.8874 6.4585 24.5413Z" fill="#6D6D6D"/>
</svg>
