<svg width="28" height="28" viewBox="0 0 28 28" fill="none" xmlns="http://www.w3.org/2000/svg">
<path d="M22.7327 23.513L15.427 16.2073C14.8437 16.7043 14.1729 17.0889 13.4145 17.3612C12.6562 17.6334 11.894 17.7695 11.1279 17.7695C9.25965 17.7695 7.67843 17.1228 6.3842 15.8293C5.08998 14.5359 4.44287 12.955 4.44287 11.0868C4.44287 9.2186 5.0892 7.63699 6.38187 6.34199C7.67454 5.04699 9.25498 4.39871 11.1232 4.39716C12.9914 4.3956 14.5734 5.04271 15.8692 6.33849C17.165 7.63427 17.8129 9.21588 17.8129 11.0833C17.8129 11.8938 17.6694 12.6782 17.3824 13.4365C17.0954 14.1948 16.7181 14.8435 16.2507 15.3825L23.5564 22.687L22.7327 23.513ZM11.129 16.6017C12.6768 16.6017 13.9835 16.0689 15.049 15.0033C16.1146 13.9378 16.6474 12.6307 16.6474 11.0822C16.6474 9.5336 16.1146 8.22694 15.049 7.16216C13.9835 6.09738 12.6768 5.5646 11.129 5.56383C9.58126 5.56305 8.2742 6.09583 7.20787 7.16216C6.14154 8.22849 5.60876 9.53516 5.60954 11.0822C5.61032 12.6292 6.14309 13.9358 7.20787 15.0022C8.27265 16.0685 9.57932 16.6013 11.1279 16.6005" fill="#6D6D6D"/>
</svg>
