<svg width="200" height="123" viewBox="0 0 200 123" fill="none" xmlns="http://www.w3.org/2000/svg">
<path d="M72.2339 108.36C71.1551 107.445 70.2433 106.35 69.5393 105.124L51.2165 73.2939C50.1488 71.4355 49.5869 69.3297 49.5869 67.1865C49.5869 65.0432 50.1488 62.9374 51.2165 61.079L69.5393 29.2484C70.2443 28.0285 71.1552 26.9398 72.2315 26.0305L84.5237 48.2227L75.6471 64.2031C75.141 65.1117 74.8753 66.1345 74.8753 67.1746C74.8753 68.2147 75.141 69.2376 75.6471 70.1462L84.5323 86.1794L72.2339 108.36ZM127.326 29.2484L145.649 61.0782C146.722 62.9348 147.287 65.0413 147.287 67.1857C147.287 69.3301 146.722 71.4366 145.649 73.2931L127.326 105.123C126.255 106.979 124.714 108.52 122.859 109.593C121.003 110.665 118.898 111.23 116.755 111.231H102.372L125.158 70.1454C125.66 69.2397 125.924 68.2212 125.924 67.1857C125.924 66.1502 125.66 65.1316 125.158 64.2259L102.372 23.1413H116.755C118.898 23.1424 121.003 23.7073 122.858 24.7793C124.714 25.8512 126.255 27.3925 127.326 29.2484ZM76.4697 23.9607C77.8678 23.4207 79.3533 23.1427 80.852 23.1405H97.599L120.385 64.2259C120.887 65.1316 121.151 66.1502 121.151 67.1857C121.151 68.2212 120.887 69.2397 120.385 70.1454L97.599 111.231H80.8528C79.2282 111.231 77.6035 110.898 76.1309 110.291L97.9693 69.7783C98.6737 68.5098 98.7588 66.0452 98.0536 64.7767L76.4697 23.9607Z" fill="#0083B3"/>
</svg>
