<svg width="81px" height="80px" viewBox="0 0 81 80" fill="none" xmlns="http://www.w3.org/2000/svg" transform="rotate(0) scale(1, 1)">
<g id="healthicons:electricity-outline">
<g id="Group">
<path id="Vector" d="M42.1666 20L32.1666 35H38.8333V45L48.8333 30H42.1666V20Z" fill="#000000"/>
<path id="Vector_2" fill-rule="evenodd" clip-rule="evenodd" d="M63.6833 32.1216C63.1773 36.4138 61.452 40.4712 58.7117 43.8133C57.1083 45.7733 53.0333 51.3666 52.1667 55H28.8333C27.9667 51.3633 23.8867 45.7683 22.2833 43.8083C19.5443 40.4647 17.8207 36.4061 17.3167 32.1133C16.8199 27.8296 17.5675 23.4934 19.47 19.6233C21.3893 15.723 24.3747 12.4464 28.08 10.1733C31.8162 7.87582 36.1173 6.66176 40.5033 6.66664C44.9 6.66664 49.2067 7.88331 52.9267 10.1783C56.631 12.4523 59.6152 15.7294 61.5333 19.63C63.435 23.5009 64.1814 27.8377 63.6833 32.1216ZM49.805 51.6666H31.1933C30.4833 50.0283 29.535 48.3866 28.6517 46.9916C27.4889 45.1587 26.2247 43.392 24.865 41.7C22.5289 38.8493 21.0586 35.3888 20.6283 31.7283C20.2051 28.0803 20.8415 24.3875 22.4617 21.0916C24.1041 17.7561 26.6584 14.9545 29.8283 13.0116C33.0388 11.0379 36.7347 9.99519 40.5033 9.99997C44.2867 9.99997 47.9867 11.0483 51.1783 13.0166C54.3471 14.96 56.9002 17.7616 58.5417 21.0966C60.161 24.3933 60.7963 28.0867 60.3717 31.735C59.9399 35.3946 58.4685 38.8539 56.1317 41.7033C54.7697 43.3933 53.506 45.1601 52.3467 46.995C51.4633 48.39 50.515 50.0283 49.805 51.6666Z" fill="#000000"/>
<path id="Vector_3" d="M28.8334 60C28.8334 59.558 29.009 59.134 29.3215 58.8215C29.6341 58.5089 30.058 58.3333 30.5 58.3333H50.5C50.9421 58.3333 51.366 58.5089 51.6786 58.8215C51.9911 59.134 52.1667 59.558 52.1667 60C52.1667 60.442 51.9911 60.8659 51.6786 61.1785C51.366 61.4911 50.9421 61.6666 50.5 61.6666H30.5C30.058 61.6666 29.6341 61.4911 29.3215 61.1785C29.009 60.8659 28.8334 60.442 28.8334 60Z" fill="#000000"/>
<path id="Vector_4" fill-rule="evenodd" clip-rule="evenodd" d="M28.8334 65H52.1667V70C52.1667 70.8841 51.8155 71.7319 51.1904 72.357C50.5653 72.9821 49.7174 73.3333 48.8334 73.3333H32.1667C31.2827 73.3333 30.4348 72.9821 29.8097 72.357C29.1846 71.7319 28.8334 70.8841 28.8334 70V65ZM32.1667 68.3333H48.8334V70H32.1667V68.3333Z" fill="#000000"/>
</g>
</g>
</svg>