<svg width="177" height="51" viewBox="0 0 177 51" fill="none" xmlns="http://www.w3.org/2000/svg">
<path d="M69.7283 35H64.0778V17.5455H69.9073C71.6175 17.5455 73.0863 17.8949 74.3136 18.5938C75.5408 19.2869 76.4812 20.2841 77.1346 21.5852C77.7937 22.8807 78.1232 24.4347 78.1232 26.2472C78.1232 28.0653 77.7908 29.6278 77.1261 30.9347C76.467 32.2415 75.5124 33.2472 74.2624 33.9517C73.0124 34.6506 71.5011 35 69.7283 35ZM66.7113 32.6989H69.5835C70.913 32.6989 72.0181 32.4489 72.8988 31.9489C73.7795 31.4432 74.4386 30.7131 74.8761 29.7585C75.3136 28.7983 75.5323 27.6278 75.5323 26.2472C75.5323 24.8778 75.3136 23.7159 74.8761 22.7614C74.4442 21.8068 73.7994 21.0824 72.9414 20.5881C72.0835 20.0937 71.0181 19.8466 69.7454 19.8466H66.7113V32.6989ZM82.0053 35H79.2099L85.4911 17.5455H88.5337L94.815 35H92.0195L87.0849 20.7159H86.9485L82.0053 35ZM82.4741 28.1648H91.5423V30.3807H82.4741V28.1648ZM99.2532 35L94.4123 17.5455H97.1822L100.583 31.0625H100.745L104.282 17.5455H107.026L110.563 31.071H110.725L114.117 17.5455H116.895L112.046 35H109.395L105.722 21.9261H105.586L101.912 35H99.2532ZM119.271 35H116.475L122.757 17.5455H125.799L132.081 35H129.285L124.35 20.7159H124.214L119.271 35ZM119.74 28.1648H128.808V30.3807H119.74V28.1648ZM134.601 35V17.5455H140.823C142.175 17.5455 143.297 17.7784 144.189 18.2443C145.087 18.7102 145.757 19.3551 146.201 20.179C146.644 20.9972 146.865 21.9432 146.865 23.017C146.865 24.0852 146.641 25.0256 146.192 25.8381C145.749 26.6449 145.078 27.2727 144.181 27.7216C143.289 28.1705 142.167 28.3949 140.814 28.3949H136.101V26.1278H140.576C141.428 26.1278 142.121 26.0057 142.655 25.7614C143.195 25.517 143.59 25.1619 143.84 24.696C144.09 24.2301 144.215 23.6705 144.215 23.017C144.215 22.358 144.087 21.7869 143.831 21.304C143.581 20.821 143.186 20.4517 142.647 20.196C142.113 19.9347 141.411 19.804 140.542 19.804H137.235V35H134.601ZM143.218 27.125L147.53 35H144.53L140.303 27.125H143.218ZM150.07 35V17.5455H152.703V32.733H160.613V35H150.07ZM160.981 17.5455H163.973L168.532 25.4801H168.72L173.279 17.5455H176.271L169.939 28.1477V35H167.314V28.1477L160.981 17.5455Z" fill="#0083B3"/>
<path d="M12.2491 46.3211C11.7036 45.8587 11.2425 45.305 10.8865 44.6847L1.62081 28.5887C1.08088 27.6489 0.796753 26.584 0.796753 25.5002C0.796753 24.4164 1.08088 23.3515 1.62081 22.4117L10.8865 6.31522C11.243 5.69834 11.7036 5.14781 12.2479 4.688L18.464 15.9104L13.9752 23.9915C13.7192 24.451 13.5849 24.9682 13.5849 25.4942C13.5849 26.0202 13.7192 26.5374 13.9752 26.9969L18.4683 35.1047L12.2491 46.3211ZM40.1087 6.31522L49.3743 22.4113C49.917 23.3501 50.2027 24.4154 50.2027 25.4998C50.2027 26.5842 49.917 27.6494 49.3743 28.5883L40.1087 44.6843C39.567 45.6229 38.7879 46.4024 37.8496 46.9446C36.9113 47.4867 35.8469 47.7724 34.7632 47.773H27.4898L39.0126 26.9965C39.2664 26.5385 39.3996 26.0234 39.3996 25.4998C39.3996 24.9761 39.2664 24.4611 39.0126 24.0031L27.4898 3.22693H34.7632C35.8469 3.22749 36.9113 3.51315 37.8495 4.05524C38.7878 4.59732 39.5669 5.37674 40.1087 6.31522ZM14.3911 3.64131C15.0981 3.36824 15.8493 3.22764 16.6072 3.22653H25.076L36.5988 24.0031C36.8527 24.4611 36.9858 24.9761 36.9858 25.4998C36.9858 26.0234 36.8527 26.5385 36.5988 26.9965L25.076 47.773H16.6076C15.7861 47.773 14.9645 47.6045 14.2198 47.2977L25.2633 26.8108C25.6195 26.1694 25.6625 24.923 25.3059 24.2816L14.3911 3.64131Z" fill="#0083B3"/>
</svg>
