<svg width="121" height="162" viewBox="0 0 121 162" fill="none" xmlns="http://www.w3.org/2000/svg">
<path d="M8.56818 155H2.91761V137.545H8.74716C10.4574 137.545 11.9261 137.895 13.1534 138.594C14.3807 139.287 15.321 140.284 15.9744 141.585C16.6335 142.881 16.9631 144.435 16.9631 146.247C16.9631 148.065 16.6307 149.628 15.9659 150.935C15.3068 152.241 14.3523 153.247 13.1023 153.952C11.8523 154.651 10.3409 155 8.56818 155ZM5.55114 152.699H8.4233C9.75284 152.699 10.858 152.449 11.7386 151.949C12.6193 151.443 13.2784 150.713 13.7159 149.759C14.1534 148.798 14.3722 147.628 14.3722 146.247C14.3722 144.878 14.1534 143.716 13.7159 142.761C13.2841 141.807 12.6392 141.082 11.7812 140.588C10.9233 140.094 9.85795 139.847 8.58523 139.847H5.55114V152.699ZM20.8452 155H18.0497L24.331 137.545H27.3736L33.6548 155H30.8594L25.9247 140.716H25.7884L20.8452 155ZM21.3139 148.165H30.3821V150.381H21.3139V148.165ZM38.093 155L33.2521 137.545H36.022L39.4226 151.062H39.5845L43.1214 137.545H45.8658L49.4027 151.071H49.5646L52.9567 137.545H55.7351L50.8857 155H48.2351L44.5618 141.926H44.4254L40.7521 155H38.093ZM58.1108 155H55.3153L61.5966 137.545H64.6392L70.9205 155H68.125L63.1903 140.716H63.054L58.1108 155ZM58.5795 148.165H67.6477V150.381H58.5795V148.165ZM73.4411 155V137.545H79.6626C81.0149 137.545 82.1371 137.778 83.0291 138.244C83.9268 138.71 84.5973 139.355 85.0405 140.179C85.4837 140.997 85.7053 141.943 85.7053 143.017C85.7053 144.085 85.4808 145.026 85.032 145.838C84.5888 146.645 83.9183 147.273 83.0206 147.722C82.1286 148.17 81.0064 148.395 79.6541 148.395H74.9411V146.128H79.4155C80.2678 146.128 80.9609 146.006 81.495 145.761C82.0348 145.517 82.4297 145.162 82.6797 144.696C82.9297 144.23 83.0547 143.67 83.0547 143.017C83.0547 142.358 82.9268 141.787 82.6712 141.304C82.4212 140.821 82.0263 140.452 81.4865 140.196C80.9524 139.935 80.2507 139.804 79.3814 139.804H76.0746V155H73.4411ZM82.0575 147.125L86.37 155H83.37L79.1428 147.125H82.0575ZM88.9098 155V137.545H91.5433V152.733H99.4524V155H88.9098ZM99.821 137.545H102.812L107.372 145.48H107.56L112.119 137.545H115.111L108.778 148.148V155H106.153V148.148L99.821 137.545Z" fill="#0083B3"/>
<path d="M29.0617 109.899C27.7674 108.802 26.6735 107.488 25.8287 106.017L3.8455 67.8281C2.5645 65.5984 1.89038 63.0719 1.89038 60.5005C1.89038 57.929 2.5645 55.4025 3.8455 53.1729L25.8287 14.9832C26.6747 13.5196 27.7675 12.2135 29.0589 11.1226L43.8067 37.7482L33.1568 56.9211C32.5495 58.0112 32.2308 59.2384 32.2308 60.4863C32.2308 61.7342 32.5495 62.9614 33.1568 64.0515L43.8171 83.2877L29.0617 109.899ZM95.1599 14.9832L117.143 53.1719C118.431 55.3994 119.108 57.9268 119.108 60.4995C119.108 63.0723 118.431 65.5997 117.143 67.8271L95.1599 106.016C93.8747 108.243 92.0262 110.092 89.8001 111.378C87.574 112.665 85.0486 113.342 82.4775 113.344H65.2209L92.5593 64.0506C93.1615 62.9639 93.4775 61.7419 93.4775 60.4995C93.4775 59.2571 93.1615 58.0352 92.5593 56.9485L65.2209 7.6561H82.4775C85.0485 7.65742 87.5738 8.33517 89.7999 9.62129C92.026 10.9074 93.8746 12.7566 95.1599 14.9832ZM34.1437 8.63922C35.8211 7.99136 37.6034 7.65777 39.4015 7.65515H59.4942L86.8326 56.9485C87.4348 58.0352 87.7508 59.2571 87.7508 60.4995C87.7508 61.7419 87.4348 62.9639 86.8326 64.0506L59.4942 113.344H39.4025C37.4533 113.344 35.504 112.944 33.7372 112.216L59.9385 63.6101C60.7836 62.0881 60.8857 59.1312 60.0396 57.6092L34.1437 8.63922Z" fill="#0083B3"/>
</svg>
