<svg width="121" height="115" viewBox="0 0 121 115" fill="none" xmlns="http://www.w3.org/2000/svg">
<path d="M8.56818 108H2.91761V90.5455H8.74716C10.4574 90.5455 11.9261 90.8949 13.1534 91.5938C14.3807 92.2869 15.321 93.2841 15.9744 94.5852C16.6335 95.8807 16.9631 97.4347 16.9631 99.2472C16.9631 101.065 16.6307 102.628 15.9659 103.935C15.3068 105.241 14.3523 106.247 13.1023 106.952C11.8523 107.651 10.3409 108 8.56818 108ZM5.55114 105.699H8.4233C9.75284 105.699 10.858 105.449 11.7386 104.949C12.6193 104.443 13.2784 103.713 13.7159 102.759C14.1534 101.798 14.3722 100.628 14.3722 99.2472C14.3722 97.8778 14.1534 96.7159 13.7159 95.7614C13.2841 94.8068 12.6392 94.0824 11.7812 93.5881C10.9233 93.0937 9.85795 92.8466 8.58523 92.8466H5.55114V105.699ZM20.8452 108H18.0497L24.331 90.5455H27.3736L33.6548 108H30.8594L25.9247 93.7159H25.7884L20.8452 108ZM21.3139 101.165H30.3821V103.381H21.3139V101.165ZM38.093 108L33.2521 90.5455H36.022L39.4226 104.062H39.5845L43.1214 90.5455H45.8658L49.4027 104.071H49.5646L52.9567 90.5455H55.7351L50.8857 108H48.2351L44.5618 94.9261H44.4254L40.7521 108H38.093ZM58.1108 108H55.3153L61.5966 90.5455H64.6392L70.9205 108H68.125L63.1903 93.7159H63.054L58.1108 108ZM58.5795 101.165H67.6477V103.381H58.5795V101.165ZM73.4411 108V90.5455H79.6626C81.0149 90.5455 82.1371 90.7784 83.0291 91.2443C83.9268 91.7102 84.5973 92.3551 85.0405 93.179C85.4837 93.9972 85.7053 94.9432 85.7053 96.017C85.7053 97.0852 85.4808 98.0256 85.032 98.8381C84.5888 99.6449 83.9183 100.273 83.0206 100.722C82.1286 101.17 81.0064 101.395 79.6541 101.395H74.9411V99.1278H79.4155C80.2678 99.1278 80.9609 99.0057 81.495 98.7614C82.0348 98.517 82.4297 98.1619 82.6797 97.696C82.9297 97.2301 83.0547 96.6705 83.0547 96.017C83.0547 95.358 82.9268 94.7869 82.6712 94.304C82.4212 93.821 82.0263 93.4517 81.4865 93.196C80.9524 92.9347 80.2507 92.804 79.3814 92.804H76.0746V108H73.4411ZM82.0575 100.125L86.37 108H83.37L79.1428 100.125H82.0575ZM88.9098 108V90.5455H91.5433V105.733H99.4524V108H88.9098ZM99.821 90.5455H102.812L107.372 98.4801H107.56L112.119 90.5455H115.111L108.778 101.148V108H106.153V101.148L99.821 90.5455Z" fill="#0083B3"/>
<path d="M43.7014 65.5576C43.0488 65.0044 42.4971 64.3419 42.0712 63.5999L30.9859 44.3428C30.3399 43.2185 30 41.9445 30 40.6478C30 39.3511 30.3399 38.0771 30.9859 36.9528L42.0712 17.6953C42.4977 16.9572 43.0488 16.2986 43.7 15.7485L51.1367 29.1747L45.7664 38.8428C45.4602 39.3926 45.2995 40.0114 45.2995 40.6407C45.2995 41.2699 45.4602 41.8888 45.7664 42.4385L51.142 52.1385L43.7014 65.5576ZM77.0321 17.6953L88.1174 36.9523C88.7666 38.0755 89.1084 39.35 89.1084 40.6473C89.1084 41.9447 88.7666 43.2191 88.1174 44.3423L77.0321 63.5994C76.384 64.7223 75.4519 65.6549 74.3294 66.3035C73.2068 66.9521 71.9334 67.2939 70.6369 67.2947H61.9351L75.7208 42.438C76.0244 41.89 76.1837 41.2738 76.1837 40.6473C76.1837 40.0208 76.0244 39.4046 75.7208 38.8567L61.9351 14.0005H70.6369C71.9333 14.0011 73.2068 14.3429 74.3293 14.9914C75.4518 15.64 76.384 16.5725 77.0321 17.6953ZM46.2641 14.4962C47.1099 14.1695 48.0087 14.0013 48.9154 14H59.0473L72.833 38.8567C73.1367 39.4046 73.296 40.0208 73.296 40.6473C73.296 41.2738 73.1367 41.89 72.833 42.438L59.0473 67.2947H48.9159C47.933 67.2947 46.95 67.093 46.0591 66.726L59.2714 42.2159C59.6975 41.4484 59.749 39.9573 59.3224 39.1899L46.2641 14.4962Z" fill="#0083B3"/>
</svg>
