<svg width="24" height="24" viewBox="0 0 24 24" fill="none" xmlns="http://www.w3.org/2000/svg">
<g id="hugeicons:imo">
<g id="Group">
<path id="Vector" d="M12 22C17.523 22 22 17.523 22 12C22 6.477 17.523 2 12 2C6.477 2 2 6.477 2 12C2 13.821 2.487 15.53 3.338 17L2 22L7 20.662C8.51963 21.5408 10.2445 22.0024 12 22Z" stroke="black" stroke-width="1.5" stroke-linecap="round" stroke-linejoin="round"/>
<path id="Vector_2" d="M7.009 9H7M7.001 11V15M8.913 15V12.25C8.913 11.56 9.448 11 10.109 11C10.77 11 11.304 11.56 11.304 12.25M11.304 12.25V15M11.304 12.25C11.304 11.56 11.84 11 12.5 11C13.16 11 13.696 11.56 13.696 12.25V15M15.609 12.25V13.75C15.609 14.44 16.144 15 16.804 15C17.464 15 18 14.44 18 13.75V12.25C18 11.56 17.465 11 16.804 11C16.143 11 15.609 11.56 15.609 12.25Z" stroke="black" stroke-width="1.5" stroke-linecap="round" stroke-linejoin="round"/>
</g>
</g>
</svg>
