<svg width="23" height="23" viewBox="0 0 23 23" fill="none" xmlns="http://www.w3.org/2000/svg">
<g id="mdi:instagram">
<path id="Vector" d="M7.8 1H16.2C19.4 1 22 3.6 22 6.8V15.2C22 16.7383 21.3889 18.2135 20.3012 19.3012C19.2135 20.3889 17.7383 21 16.2 21H7.8C4.6 21 2 18.4 2 15.2V6.8C2 5.26174 2.61107 3.78649 3.69878 2.69878C4.78649 1.61107 6.26174 1 7.8 1ZM7.6 3C6.64522 3 5.72955 3.37928 5.05442 4.05442C4.37928 4.72955 4 5.64522 4 6.6V15.4C4 17.39 5.61 19 7.6 19H16.4C17.3548 19 18.2705 18.6207 18.9456 17.9456C19.6207 17.2705 20 16.3548 20 15.4V6.6C20 4.61 18.39 3 16.4 3H7.6ZM17.25 4.5C17.5815 4.5 17.8995 4.6317 18.1339 4.86612C18.3683 5.10054 18.5 5.41848 18.5 5.75C18.5 6.08152 18.3683 6.39946 18.1339 6.63388C17.8995 6.8683 17.5815 7 17.25 7C16.9185 7 16.6005 6.8683 16.3661 6.63388C16.1317 6.39946 16 6.08152 16 5.75C16 5.41848 16.1317 5.10054 16.3661 4.86612C16.6005 4.6317 16.9185 4.5 17.25 4.5ZM12 6C13.3261 6 14.5979 6.52678 15.5355 7.46447C16.4732 8.40215 17 9.67392 17 11C17 12.3261 16.4732 13.5979 15.5355 14.5355C14.5979 15.4732 13.3261 16 12 16C10.6739 16 9.40215 15.4732 8.46447 14.5355C7.52678 13.5979 7 12.3261 7 11C7 9.67392 7.52678 8.40215 8.46447 7.46447C9.40215 6.52678 10.6739 6 12 6ZM12 8C11.2044 8 10.4413 8.31607 9.87868 8.87868C9.31607 9.44129 9 10.2044 9 11C9 11.7956 9.31607 12.5587 9.87868 13.1213C10.4413 13.6839 11.2044 14 12 14C12.7956 14 13.5587 13.6839 14.1213 13.1213C14.6839 12.5587 15 11.7956 15 11C15 10.2044 14.6839 9.44129 14.1213 8.87868C13.5587 8.31607 12.7956 8 12 8Z" fill="black"/>
</g>
</svg>
