<svg width="16" height="16" viewBox="0 0 16 16" fill="none" xmlns="http://www.w3.org/2000/svg">
<g id="ic:baseline-phone">
<path id="Vector" d="M4.8331 7.19333C5.74429 9.08 7.21231 10.62 9.00304 11.5867L10.3951 10.12C10.566 9.94 10.8191 9.88 11.0406 9.96C11.7493 10.2067 12.5149 10.34 13.2995 10.34C13.6476 10.34 13.9323 10.64 13.9323 11.0067V13.3333C13.9323 13.7 13.6476 14 13.2995 14C7.35785 14 2.54248 8.92667 2.54248 2.66667C2.54248 2.3 2.82723 2 3.17525 2H5.38994C5.73796 2 6.02271 2.3 6.02271 2.66667C6.02271 3.5 6.14926 4.3 6.38338 5.04667C6.45299 5.28 6.40237 5.54 6.22519 5.72667L4.8331 7.19333Z" fill="black"/>
</g>
</svg>
