<svg width="20" height="21" viewBox="0 0 20 21" fill="none" xmlns="http://www.w3.org/2000/svg">
<g id="SVG">
<path id="Vector" d="M17.9441 6.11632C17.9568 6.29397 17.9568 6.47167 17.9568 6.64933C17.9568 12.0681 13.8325 18.3117 6.29441 18.3117C3.97207 18.3117 1.81473 17.6391 0 16.4717C0.329961 16.5097 0.647187 16.5224 0.989844 16.5224C2.90605 16.5224 4.67004 15.8752 6.07867 14.7712C4.27664 14.7331 2.76648 13.5529 2.24617 11.9285C2.5 11.9666 2.75379 11.9919 3.02031 11.9919C3.38832 11.9919 3.75637 11.9412 4.09898 11.8524C2.22082 11.4716 0.812148 9.8219 0.812148 7.82952V7.77878C1.35781 8.08335 1.99238 8.2737 2.66492 8.29905C1.56086 7.563 0.837539 6.30667 0.837539 4.88534C0.837539 4.12394 1.04055 3.42597 1.3959 2.81683C3.41367 5.30413 6.44668 6.92847 9.84766 7.10616C9.78422 6.80159 9.74613 6.48437 9.74613 6.1671C9.74613 3.90819 11.5736 2.06812 13.8451 2.06812C15.0253 2.06812 16.0913 2.56304 16.84 3.36253C17.7664 3.18487 18.6547 2.84222 19.4416 2.37269C19.137 3.32448 18.4898 4.12397 17.6395 4.63155C18.4644 4.54276 19.2639 4.31429 19.9999 3.99706C19.4416 4.80921 18.7436 5.53253 17.9441 6.11632Z" fill="#181818"/>
</g>
</svg>
