<svg width="23" height="23" viewBox="0 0 23 23" fill="none" xmlns="http://www.w3.org/2000/svg">
<g id="ic:baseline-whatsapp">
<path id="Vector" d="M17.7838 5.18066C16.9665 4.3554 15.9932 3.70106 14.9205 3.25576C13.8478 2.81046 12.6972 2.58311 11.5357 2.58696C6.6692 2.58696 2.7029 6.55327 2.7029 11.4198C2.7029 12.9796 3.1129 14.4948 3.87942 15.8317L2.63159 20.413L7.31094 19.183C8.60333 19.8872 10.0562 20.2615 11.5357 20.2615C16.4022 20.2615 20.3685 16.2952 20.3685 11.4287C20.3685 9.06674 19.4505 6.8474 17.7838 5.18066ZM11.5357 18.7641C10.2166 18.7641 8.9242 18.4076 7.79224 17.7391L7.52485 17.5787L4.74398 18.3096L5.48377 15.6L5.30551 15.3237C4.57245 14.1535 4.18329 12.8007 4.18246 11.4198C4.18246 7.37327 7.48029 4.07544 11.5268 4.07544C13.4877 4.07544 15.3327 4.84196 16.7142 6.2324C17.3984 6.91323 17.9406 7.72314 18.3093 8.61515C18.678 9.50715 18.866 10.4635 18.8622 11.4287C18.8801 15.4752 15.5822 18.7641 11.5357 18.7641ZM15.5644 13.2737C15.3416 13.1667 14.2542 12.632 14.0581 12.5517C13.8531 12.4804 13.7105 12.4448 13.559 12.6587C13.4075 12.8815 12.9885 13.3807 12.8638 13.5233C12.739 13.6748 12.6053 13.6926 12.3825 13.5767C12.1596 13.4698 11.4466 13.2291 10.6088 12.4804C9.9492 11.8922 9.51246 11.1702 9.37877 10.9474C9.25398 10.7246 9.36094 10.6087 9.47681 10.4928C9.57485 10.3948 9.69964 10.2344 9.80659 10.1096C9.91355 9.98479 9.95811 9.88674 10.0294 9.74414C10.1007 9.59261 10.0651 9.46783 10.0116 9.36088C9.95811 9.25392 9.51246 8.16653 9.3342 7.72088C9.15594 7.29305 8.96877 7.34653 8.83507 7.33761H8.40724C8.25572 7.33761 8.02398 7.39109 7.81898 7.61392C7.6229 7.83674 7.05246 8.37153 7.05246 9.45892C7.05246 10.5463 7.84572 11.598 7.95268 11.7407C8.05964 11.8922 9.51246 14.1204 11.7229 15.0741C12.2488 15.3059 12.6588 15.4396 12.9796 15.5376C13.5055 15.707 13.9868 15.6802 14.3701 15.6267C14.7979 15.5644 15.6803 15.092 15.8585 14.575C16.0457 14.058 16.0457 13.6213 15.9833 13.5233C15.9209 13.4252 15.7872 13.3807 15.5644 13.2737Z" fill="black"/>
</g>
</svg>
