<svg width="20" height="21" viewBox="0 0 20 21" fill="none" xmlns="http://www.w3.org/2000/svg">
<g id="SVG">
<path id="Vector" d="M19.0853 5.60941C18.8672 4.78823 18.2246 4.14149 17.4088 3.92201C15.9299 3.52319 10 3.52319 10 3.52319C10 3.52319 4.07019 3.52319 2.59133 3.92201C1.77546 4.14153 1.13289 4.78823 0.914805 5.60941C0.518555 7.09785 0.518555 10.2033 0.518555 10.2033C0.518555 10.2033 0.518555 13.3088 0.914805 14.7973C1.13289 15.6184 1.77546 16.2382 2.59133 16.4577C4.07019 16.8565 10 16.8565 10 16.8565C10 16.8565 15.9299 16.8565 17.4088 16.4577C18.2246 16.2382 18.8672 15.6184 19.0853 14.7973C19.4815 13.3088 19.4815 10.2033 19.4815 10.2033C19.4815 10.2033 19.4815 7.09785 19.0853 5.60941ZM8.06064 13.0229V7.38378L13.0169 10.2034L8.06064 13.0229Z" fill="#181818"/>
</g>
</svg>
